# xmcd
#
# Track frame offsets:
#	150
#	20568
#	37275
#	58570
#	88555
#	117160
#	138370
#	162418
#	177178
#	191340
#	214513
#	236755
#	258273
#
# Disc length: 3508 seconds
#
# Revision: 0
# Processed by: cddbd v1.5.2PL0 Copyright (c) Steve Scherf et al.
# Submitted via: audiograbber 1.83.01
#
DISCID=b00db20d
DTITLE=Lisa Mednick - Semaphore
DYEAR=2002
DGENRE=Indie Pop/Rock
TTITLE0=Wrecker
TTITLE1=Stranger
TTITLE2=Chickamauga
TTITLE3=Widow Of This World
TTITLE4=She Loved You
TTITLE5=Semaphore
TTITLE6=Falling Off A Wheel
TTITLE7=No More Rain
TTITLE8=Sad Louisiana Waltz
TTITLE9=Feed The Beast
TTITLE10=Dancing In My Cell
TTITLE11=Open The Window
TTITLE12=[Untitled hidden track]
EXTD=
EXTT0=
EXTT1=
EXTT2=
EXTT3=
EXTT4=
EXTT5=
EXTT6=
EXTT7=
EXTT8=
EXTT9=
EXTT10=
EXTT11=
EXTT12=
PLAYORDER=
